<svg width="120" height="140" viewBox="0 0 120 140" fill="none" xmlns="http://www.w3.org/2000/svg">
  <rect x="10" y="10" width="100" height="120" rx="16" fill="#FFFFFF" fill-opacity="0.4"/>
  <path d="M60 25L67 47L90 47L71 60L78 83L60 69L42 83L49 60L30 47L53 47L60 25Z" fill="#4CAF50"/>
  <circle cx="60" cy="60" r="12" fill="#D32F2F" fill-opacity="0.85"/>
  <path d="M60 42L64 55H78L67 63L71 76L60 67L49 76L53 63L42 55H56L60 42Z" fill="#FFC107"/>
  <rect x="28" y="95" width="64" height="8" rx="4" fill="#1A3D1F" fill-opacity="0.65"/>
  <rect x="38" y="108" width="44" height="6" rx="3" fill="#1A3D1F" fill-opacity="0.4"/>
</svg>
