<svg xmlns="http://www.w3.org/2000/svg" width="51" height="51" viewBox="0 0 51 51" fill="none">

<g mask="url(#mask0_2351_5179)">
<g clip-path="url(#clip0_2351_5179)">
<path d="M10.5395 13.5098L3.40234 25.8177H17.6766L10.5395 13.5098Z" fill="#4791ED"/>
<path d="M24.8129 13.5098L17.6758 25.8177H31.9501L24.8129 13.5098Z" fill="#4791ED"/>
<path d="M24.8129 38.1253L31.9501 25.8174H17.6758L24.8129 38.1253Z" fill="#7D62E3"/>
<path d="M17.6762 1.20215L10.5391 13.5101H24.8133L17.6762 1.20215Z" fill="#03DEC7"/>
<path d="M17.6762 25.8177L24.8133 13.5098H10.5391L17.6762 25.8177Z" fill="#03DEC7"/>
<path d="M17.6762 25.8174L10.5391 38.1253H24.8133L17.6762 25.8174Z" fill="#E81D2B"/>
<path d="M17.6762 50.4339L24.8133 38.126H10.5391L17.6762 50.4339Z" fill="#E81D2B"/>
<path d="M10.5395 38.1253L17.6766 25.8174H3.40234L10.5395 38.1253Z" fill="#7D62E3"/>
</g>
</g>
<path fill-rule="evenodd" clip-rule="evenodd" d="M22.6377 3.60402C20.4632 -0.221681 14.9522 -0.228816 12.7678 3.59126L1.60016 23.1215C0.595068 24.8792 0.601576 27.0391 1.61725 28.7907L12.7849 48.0507C14.977 51.8312 20.4385 51.8241 22.6207 48.0379L33.7215 28.778C34.7274 27.0328 34.7338 24.8855 33.7385 23.1343L22.6377 3.60402ZM16.3082 5.61572C16.9243 4.53827 18.4787 4.54028 19.092 5.61932L30.1928 25.1496C30.4736 25.6435 30.4717 26.2492 30.188 26.7414L19.0873 46.0013C18.4718 47.0692 16.9313 47.0712 16.3131 46.0049L5.14541 26.745C4.85894 26.2509 4.8571 25.6417 5.14059 25.1459L16.3082 5.61572Z" fill="white"/>
<defs>
<clipPath id="clip0_2351_5179">
<rect width="28.5486" height="49.2317" fill="white" transform="translate(3.40234 1.20215)"/>
</clipPath>
</defs>
<script xmlns=""/></svg>